<?xml version="1.0" encoding="UTF-8" standalone="no"?>
<!-- Uploaded to: SVG Repo, www.svgrepo.com, Generator: SVG Repo Mixer Tools -->

<svg
   fill="#000000"
   height="800"
   width="6190.3647"
   version="1.1"
   id="Layer_1"
   viewBox="0 0 3961.8335 512"
   xml:space="preserve"
   sodipodi:docname="logo.svg"
   inkscape:version="1.3 (0e150ed6c4, 2023-07-21)"
   xmlns:inkscape="http://www.inkscape.org/namespaces/inkscape"
   xmlns:sodipodi="http://sodipodi.sourceforge.net/DTD/sodipodi-0.dtd"
   xmlns="http://www.w3.org/2000/svg"
   xmlns:svg="http://www.w3.org/2000/svg"><defs
   id="defs22"><rect
     x="1647.8544"
     y="93.332809"
     width="4594.0181"
     height="855.43182"
     id="rect22" /></defs><sodipodi:namedview
   id="namedview22"
   pagecolor="#ffffff"
   bordercolor="#000000"
   borderopacity="0.25"
   inkscape:showpageshadow="2"
   inkscape:pageopacity="0.0"
   inkscape:pagecheckerboard="0"
   inkscape:deskcolor="#d1d1d1"
   inkscape:zoom="0.12015625"
   inkscape:cx="2488.4265"
   inkscape:cy="436.93108"
   inkscape:window-width="1920"
   inkscape:window-height="974"
   inkscape:window-x="-11"
   inkscape:window-y="-11"
   inkscape:window-maximized="1"
   inkscape:current-layer="Layer_1" />&#10;<g
   id="g2">&#10;	<g
   id="g1">&#10;		<path
   d="m 452.011,441.668 -12.058,-48.282 c -0.375,-1.502 -1.152,-2.876 -2.244,-3.968 L 362.01,313.71 c -3.951,-3.951 -9.216,-6.135 -14.805,-6.135 -5.589,0 -10.846,2.176 -14.805,6.135 l -18.662,18.662 c -8.158,8.158 -8.166,21.436 0,29.611 l 21.402,21.393 54.306,54.306 c 1.092,1.092 2.466,1.869 3.959,2.244 l 48.256,12.083 c 2.91,0.725 5.982,-0.128 8.107,-2.244 1.621,-1.613 2.5,-3.797 2.5,-6.033 -10e-4,-0.69 -0.087,-1.381 -0.257,-2.064 z m -126.217,-91.75 c -1.51,-1.527 -1.502,-3.977 0,-5.478 l 18.662,-18.662 c 0.99,-0.99 2.142,-1.135 2.739,-1.135 0.606,0 1.758,0.154 2.739,1.135 l 15.369,15.369 -24.141,24.141 z m 74.044,74.035 -46.601,-46.601 24.141,-24.141 46.592,46.601 8.039,32.188 z"
   id="path1" />&#10;	</g>&#10;</g>&#10;<g
   id="g4">&#10;	<g
   id="g3">&#10;		<path
   d="m 384,256 c -70.579,0 -128,57.421 -128,128 0,70.579 57.421,128 128,128 70.579,0 128,-57.421 128,-128 0,-70.579 -57.421,-128 -128,-128 z m 0,238.933 c -61.167,0 -110.933,-49.766 -110.933,-110.933 0,-61.167 49.766,-110.933 110.933,-110.933 61.167,0 110.933,49.766 110.933,110.933 0,61.167 -49.766,110.933 -110.933,110.933 z"
   id="path2" />&#10;	</g>&#10;</g>&#10;<g
   id="g6">&#10;	<g
   id="g5">&#10;		<path
   d="M 264.533,477.867 H 25.6 c -3.866,0 -8.533,-3.806 -8.533,-8.533 v -25.6 c 0,-4.71 -3.823,-8.533 -8.533,-8.533 -4.71,0 -8.534,3.822 -8.534,8.532 v 25.6 c 0,13.636 11.964,25.6 25.6,25.6 h 238.933 c 4.71,0 8.533,-3.823 8.533,-8.533 0,-4.71 -3.822,-8.533 -8.533,-8.533 z"
   id="path4" />&#10;	</g>&#10;</g>&#10;<g
   id="g8">&#10;	<g
   id="g7">&#10;		<path
   d="M 469.333,119.467 V 76.8 c 0,-14.114 -11.486,-25.6 -25.6,-25.6 H 261.692 c -1.835,0 -3.652,-0.606 -5.12,-1.707 L 197.402,5.12 C 192.998,1.818 187.546,0 182.042,0 H 51.2 C 37.086,0 25.6,11.486 25.6,25.6 v 93.867 c -14.114,0 -25.6,11.486 -25.6,25.6 v 230.4 c 0,4.71 3.823,8.533 8.533,8.533 4.71,0 8.533,-3.823 8.533,-8.533 v -230.4 c 0,-4.702 3.831,-8.533 8.533,-8.533 h 443.733 c 4.702,0 8.533,3.831 8.533,8.533 v 119.467 c 0,4.71 3.823,8.533 8.533,8.533 4.71,0 8.533,-3.823 8.533,-8.533 V 145.067 c 0.002,-14.114 -11.483,-25.6 -25.598,-25.6 z m -59.733,0 H 85.333 v -8.533 c 0,-4.702 3.831,-8.533 8.533,-8.533 h 307.2 c 4.702,0 8.533,3.831 8.533,8.533 v 8.533 z m 42.667,0 h -25.6 v -8.533 c 0,-14.114 -11.486,-25.6 -25.6,-25.6 h -307.2 c -14.114,0 -25.6,11.486 -25.6,25.6 v 8.533 h -25.6 V 25.6 c 0,-4.702 3.831,-8.533 8.533,-8.533 h 130.842 c 1.835,0 3.652,0.606 5.12,1.707 l 59.17,44.373 c 4.403,3.302 9.856,5.12 15.36,5.12 h 182.042 c 4.702,0 8.533,3.831 8.533,8.533 z"
   id="path6" />&#10;	</g>&#10;</g>&#10;<g
   id="g10">&#10;	<g
   id="g9">&#10;		<path
   d="M 102.4,42.667 H 68.267 c -4.71,0 -8.533,3.823 -8.533,8.533 0,4.71 3.823,8.533 8.533,8.533 H 102.4 c 4.71,0 8.533,-3.823 8.533,-8.533 0,-4.71 -3.823,-8.533 -8.533,-8.533 z"
   id="path8" />&#10;	</g>&#10;</g>&#10;<g
   id="g12">&#10;	<g
   id="g11">&#10;		<path
   d="m 179.2,42.667 h -8.533 c -4.71,0 -8.533,3.823 -8.533,8.533 0,4.71 3.823,8.533 8.533,8.533 h 8.533 c 4.71,0 8.533,-3.823 8.533,-8.533 0,-4.71 -3.823,-8.533 -8.533,-8.533 z"
   id="path10" />&#10;	</g>&#10;</g>&#10;<g
   id="g14">&#10;	<g
   id="g13">&#10;		<circle
   cx="136.533"
   cy="51.200001"
   r="8.533"
   id="circle12" />&#10;	</g>&#10;</g>&#10;<g
   id="g16">&#10;	<g
   id="g15">&#10;		<circle
   cx="8.533"
   cy="409.60001"
   r="8.533"
   id="circle14" />&#10;	</g>&#10;</g>&#10;<g
   id="g18">&#10;	<g
   id="g17">&#10;		<path
   d="m 206.558,228.736 c 9.276,-7.834 15.309,-19.405 15.309,-32.469 0,-23.526 -19.14,-42.667 -42.667,-42.667 -23.527,0 -42.667,19.14 -42.667,42.667 0,13.065 6.033,24.636 15.309,32.469 -11.358,12.134 -32.375,39.211 -32.375,86.997 0,4.71 3.823,8.533 8.533,8.533 4.71,0 8.533,-3.823 8.533,-8.533 0,-46.473 22.588,-70.221 30.976,-78.635 3.738,1.075 7.612,1.835 11.691,1.835 4.079,0 7.953,-0.759 11.691,-1.835 8.388,8.414 30.976,32.162 30.976,78.635 0,4.71 3.823,8.533 8.533,8.533 4.71,0 8.533,-3.823 8.533,-8.533 0,-47.786 -21.017,-74.863 -32.375,-86.997 z M 179.2,221.867 c -14.114,0 -25.6,-11.486 -25.6,-25.6 0,-14.114 11.486,-25.6 25.6,-25.6 14.114,0 25.6,11.486 25.6,25.6 0,14.114 -11.486,25.6 -25.6,25.6 z"
   id="path16" />&#10;	</g>&#10;</g>&#10;<g
   id="g20">&#10;	<g
   id="g19">&#10;		<path
   d="m 315.733,196.267 c 0,-18.825 -15.309,-34.133 -34.133,-34.133 -18.824,0 -34.133,15.309 -34.133,34.133 0,8.602 3.302,16.367 8.567,22.374 -8.465,10.146 -8.567,20.42 -8.567,28.826 0,4.71 3.823,8.533 8.533,8.533 4.71,0 8.533,-3.823 8.533,-8.533 0,-7.68 0.043,-13.278 5.683,-19.166 3.575,1.28 7.373,2.099 11.383,2.099 4.01,0 7.808,-0.819 11.383,-2.099 5.641,5.888 5.683,11.486 5.683,19.166 0,4.71 3.823,8.533 8.533,8.533 4.71,0 8.533,-3.823 8.533,-8.533 0,-8.405 -0.102,-18.679 -8.567,-28.826 5.267,-6.007 8.569,-13.773 8.569,-22.374 z M 281.6,213.333 c -9.412,0 -17.067,-7.654 -17.067,-17.067 0,-9.412 7.654,-17.067 17.067,-17.067 9.412,0 17.067,7.654 17.067,17.067 0,9.413 -7.655,17.067 -17.067,17.067 z"
   id="path18" />&#10;	</g>&#10;</g>&#10;<g
   id="g22">&#10;	<g
   id="g21">&#10;		<path
   d="m 110.933,196.267 c 0,-18.825 -15.309,-34.133 -34.133,-34.133 -18.824,0 -34.133,15.309 -34.133,34.133 0,8.602 3.302,16.367 8.567,22.374 -8.465,10.146 -8.567,20.42 -8.567,28.826 0,4.71 3.823,8.533 8.533,8.533 4.71,0 8.533,-3.823 8.533,-8.533 0,-7.68 0.043,-13.278 5.683,-19.166 3.575,1.28 7.373,2.099 11.383,2.099 4.01,0 7.808,-0.819 11.383,-2.099 5.641,5.888 5.683,11.486 5.683,19.166 0,4.71 3.823,8.533 8.533,8.533 4.71,0 8.533,-3.823 8.533,-8.533 0,-8.405 -0.102,-18.679 -8.568,-28.826 5.268,-6.007 8.57,-13.773 8.57,-22.374 z M 76.8,213.333 c -9.412,0 -17.067,-7.654 -17.067,-17.067 0,-9.412 7.654,-17.067 17.067,-17.067 9.412,0 17.067,7.654 17.067,17.067 0,9.413 -7.655,17.067 -17.067,17.067 z"
   id="path20" />&#10;	</g>&#10;</g>&#10;<text
   xml:space="preserve"
   transform="scale(0.64)"
   id="text22"
   style="font-size:192px;white-space:pre;shape-inside:url(#rect22);fill:#000000;stroke-width:0" /><text
   xml:space="preserve"
   style="font-size:341.333px;fill:#000000;stroke-width:0"
   x="664.33673"
   y="346.1666"
   id="text23"><tspan
     sodipodi:role="line"
     id="tspan23"
     style="font-style:normal;font-variant:normal;font-weight:normal;font-stretch:normal;font-size:341.333px;font-family:'Century Gothic';-inkscape-font-specification:'Century Gothic';stroke-width:0"
     x="664.33673"
     y="346.1666">Employee Manager</tspan></text></svg>
